HIERARCHY
ROOT pelvis
{
  OFFSET 0 100 0
  CHANNELS 6 Xposition Yposition Zposition Zrotation Xrotation Yrotation
  JOINT pelvis_right_femur
  {
    OFFSET -10.78128 -3.44521 -0.5502486
    CHANNELS 3 Zrotation Xrotation Yrotation
    JOINT right_femur_tibia
    {
      OFFSET -0.8047443 -44.0398 -0.1307829
      CHANNELS 3 Zrotation Xrotation Yrotation
      JOINT right_tibia_foot
      {
        OFFSET 3.006224 -47.83518 -5
        CHANNELS 3 Zrotation Xrotation Yrotation
        End Site
        {
          OFFSET 0 -5 15
        }
      }
    }
  }
  JOINT pelvis_left_femur
  {
    OFFSET 10.78128 -3.44521 -0.5502486
    CHANNELS 3 Zrotation Xrotation Yrotation
    JOINT left_femur_tibia
    {
      OFFSET 0.8047443 -44.0398 -0.1307829
      CHANNELS 3 Zrotation Xrotation Yrotation
      JOINT left_tibia_foot
      {
        OFFSET -4.370144 -48.10324 -4.275266
        CHANNELS 3 Zrotation Xrotation Yrotation
        End Site
        {
          OFFSET 0 -5 15
        }
      }
    }
  }
  JOINT pelvis_spine1
  {
    OFFSET 0 6.468898 -3.129235
    CHANNELS 3 Zrotation Xrotation Yrotation
    JOINT spine1
    {
      OFFSET 0 23.15396 4.99043
      CHANNELS 3 Zrotation Xrotation Yrotation
      JOINT spine2
      {
        OFFSET 0 20.79997 -5.064912
        CHANNELS 3 Zrotation Xrotation Yrotation
        JOINT neck
        {
          OFFSET 0 14.38658 9.616178
          CHANNELS 3 Zrotation Xrotation Yrotation
          End Site
          {
            OFFSET 0 20 0
          }
        }
      }
      JOINT right_manubrium
      {
        OFFSET -5.722621 16.35077 3.967754
        CHANNELS 3 Zrotation Xrotation Yrotation
        JOINT right_clavicle
        {
          OFFSET -13.16364 1.694482 -4.693211
          CHANNELS 3 Zrotation Xrotation Yrotation
          JOINT right_humerus
          {
            OFFSET -28.5034 -0.3100689 -2.792744
            CHANNELS 3 Zrotation Xrotation Yrotation
            JOINT right_radius
            {
              OFFSET -25.15693 0.02248979 -1.271978
              CHANNELS 3 Zrotation Xrotation Yrotation
              End Site
              {
                OFFSET -15 0 0
              }
            }
          }
        }
      }
      JOINT left_manubrium
      {
        OFFSET 5.722621 16.35077 3.967754
        CHANNELS 3 Zrotation Xrotation Yrotation
        JOINT left_clavicle
        {
          OFFSET 13.16364 1.694482 -4.693211
          CHANNELS 3 Zrotation Xrotation Yrotation
          JOINT left_humerus
          {
            OFFSET 29.39168 -1.063119 -2.237045
            CHANNELS 3 Zrotation Xrotation Yrotation
            JOINT left_radius
            {
              OFFSET 24.59957 -0.9528479 0.9047498
              CHANNELS 3 Zrotation Xrotation Yrotation
              End Site
              {
                OFFSET 15 -0 -0
              }
            }
          }
        }
      }
    }
  }
}
MOTION
Frames: 15
Frame Time: 0.0416666666667
0 103.5113 0 0.8094372 -1.062369 0.05125314 3.140785 -15.11752 8.547656 -0 39.85751 -0 -7.356722 -15.751 -2.51784 -7.420523 5.57996 -23.68481 -0 4.611417 -0 7.731634 -17.68708 26.79247 -1.205522 -2.392419 4.158901 2.812228 10.31909 -8.080952 0.6402229 21.31105 6.67689 4.313765 -26.01302 7.243001 4.297239 -20.3315 11.93902 87.96977 32.77323 -20.76345 -0 0 13.6634 -10.08461 8.182724 5.930677 6.063042 -22.81917 -3.05627 -94.42458 24.49633 23.96773 0 0 -16.8647 8.35201 17.55487 4.137134
0.4103006 103.5499 0.6128635 0.8139373 -1.032618 0.118116 3.256679 -16.71294 8.704172 -0 40.77954 -0 -7.303895 -15.24883 -2.783393 -7.489066 7.272263 -23.96999 -0 5.52816 -0 7.737222 -18.06471 26.68804 -1.185179 -2.441014 3.936568 2.916537 10.36893 -8.299647 0.613641 21.31799 6.710638 4.345329 -26.10805 7.253152 4.218775 -20.07083 11.92689 88.62984 32.6208 -21.65805 -0 0 12.90878 -9.869085 8.085399 5.65045 6.212411 -23.2189 -3.180741 -93.90069 24.35751 23.09492 0 0 -17.66213 8.943738 17.69072 3.397885
0.6687754 103.2312 2.10578 0.5243667 -0.8470555 0.2858274 3.538728 -21.84044 6.701873 -0 34.33692 -0 -7.33572 -12.23248 -3.101848 -6.638954 11.40771 -21.82448 -0 4.933952 -0 6.262316 -19.65699 23.99125 -1.320222 -2.305334 3.93443 2.941138 9.900434 -8.148012 0.6842263 21.40981 6.765386 4.350925 -26.21765 7.434468 4.5838 -19.84139 11.80576 88.01758 33.51925 -21.18192 -0 0 13.19936 -9.195016 7.879755 5.559175 6.121985 -22.60068 -2.783115 -94.50573 25.56063 23.58463 0 0 -17.16045 7.852828 17.76666 4.841092
0.8331467 102.6517 3.93303 0.2968536 -0.5001167 0.4583281 3.846764 -24.69084 5.710781 -0 29.45202 -0 -7.728788 -11.38123 -3.112512 -6.146798 13.34099 -20.90397 -0 4.192483 -0 5.758113 -20.46482 22.7534 -1.38711 -2.25528 3.686629 3.061414 9.671648 -8.304234 0.7007892 21.46455 6.843919 4.376518 -26.3224 7.559006 4.722099 -19.35948 11.71241 88.39856 33.88046 -21.91895 -0 0 12.49901 -8.656627 7.735701 5.227564 6.228045 -22.66352 -2.692497 -94.16043 26.13895 22.75768 0 0 -17.8714 7.757709 17.87439 5.004803
0.9209327 101.785 6.263718 0.08988425 -0.349353 0.6542436 3.955551 -26.95513 4.467246 -0 24.56484 -0 -7.910197 -10.09984 -3.129819 -5.650532 14.86621 -19.53291 -0 3.689097 -0 4.866202 -21.09957 21.19102 -1.484109 -2.161524 3.449293 3.172295 9.36086 -8.428752 0.7334219 21.52754 6.936615 4.390549 -26.38469 7.716499 4.929513 -18.80629 11.59301 88.65953 34.3876 -22.55727 -0 0 11.85101 -8.105147 7.636313 4.921704 6.306606 -22.59747 -2.538936 -93.83523 26.92634 21.92514 0 0 -18.56787 7.374223 17.90672 5.539726
0.9531548 100.6959 9.137239 -0.06112302 -0.3907039 0.8831294 3.912703 -28.5647 3.285037 -0 20.73137 -0 -7.878287 -8.635972 -3.205714 -5.264832 16.04847 -18.09175 -0 3.795721 -0 3.807719 -21.49289 19.62852 -1.55482 -2.093098 3.188164 3.28668 9.146157 -8.609098 0.7499477 21.56999 7.02539 4.403332 -26.41754 7.840959 5.06058 -18.25293 11.49412 89.12568 34.69579 -23.40426 -0 0 11.05184 -7.691892 7.592719 4.611298 6.418596 -22.69419 -2.479046 -93.28607 27.45874 20.84336 0 0 -19.49119 7.240491 17.91538 5.746675
0.9444204 99.43925 12.63736 -0.1733311 -0.6199954 1.153123 3.760202 -29.71078 2.078279 -0 17.53456 -0 -7.65005 -6.88755 -3.361101 -4.945158 17.02643 -16.45716 -0 4.654322 -0 2.499573 -21.66065 17.93076 -1.62108 -2.019275 2.946883 3.385205 8.963165 -8.78673 0.7646236 21.59876 7.112193 4.405741 -26.39828 7.952273 5.174577 -17.71006 11.40274 89.59116 34.93919 -24.22944 -0 0 10.2738 -7.406727 7.626283 4.347539 6.521892 -22.80176 -2.445073 -92.66144 27.9026 19.70808 0 0 -20.46018 7.089806 17.85406 5.968078
0.9052377 98.08499 16.81819 -0.2537416 -1.009884 1.462684 3.570866 -30.45741 0.9154076 -0 14.87672 -0 -7.276528 -4.969587 -3.604802 -4.684878 17.82733 -14.69155 -0 6.445915 -0 0.9991197 -21.57226 16.15226 -1.669662 -1.9553 2.745933 3.459413 8.852767 -8.955244 0.7720363 21.60656 7.186518 4.39809 -26.3275 8.031025 5.242221 -17.23909 11.33445 90.04403 35.05076 -24.98461 -0 0 9.569256 -7.302314 7.741537 4.154665 6.613154 -22.94536 -2.460331 -91.99342 28.15302 18.60137 0 0 -21.41335 6.999486 17.73116 6.10073
0.8433533 96.72189 21.71794 -0.3049946 -1.566948 1.798441 3.416676 -30.72608 -0.1342535 -0 12.69344 -0 -6.782949 -2.977824 -3.947464 -4.469219 18.36765 -12.8073 -0 9.505441 -0 -0.674426 -21.13843 14.33353 -1.704504 -1.893841 2.616557 3.49564 8.804468 -9.082686 0.7765936 21.59354 7.243727 4.376055 -26.19389 8.077147 5.276583 -16.87598 11.29032 90.37695 35.0655 -25.5325 -0 0 9.047722 -7.400942 7.950519 4.070812 6.670092 -23.06373 -2.504311 -91.37177 28.24419 17.66292 0 0 -22.23079 6.880096 17.52754 6.257375
0.762323 95.47629 27.32789 -0.3249528 -2.302069 2.128998 3.401294 -30.33431 -0.9172034 -0 11.08428 -0 -6.204218 -1.105606 -4.396061 -4.284747 18.47824 -10.88834 -0 14.32279 -0 -2.447444 -20.2253 12.60459 -1.722451 -1.836991 2.594426 3.478789 8.827428 -9.137609 0.7796168 21.55794 7.274144 4.337241 -25.99286 8.081794 5.27465 -16.68334 11.27818 90.49428 34.98508 -25.73314 -0 0 8.829462 -7.737755 8.255537 4.138698 6.672683 -23.11555 -2.569135 -90.89586 28.16486 17.06155 0 0 -22.76979 6.698007 17.23833 6.477981
0.6589022 94.5238 33.54925 -0.309462 -3.219607 2.397353 3.654504 -28.95914 -1.195482 -0 10.29782 -0 -5.603107 0.3099383 -4.934609 -4.107436 17.85569 -9.112069 -0 21.46834 -0 -4.168946 -18.66529 11.21322 -1.72422 -1.781678 2.716196 3.392695 8.919054 -9.083582 0.7846297 21.50003 7.26954 4.278432 -25.71697 8.040809 5.24252 -16.71601 11.30197 90.28712 34.83078 -25.4346 -0 0 9.042885 -8.341459 8.657929 4.404156 6.597771 -23.0418 -2.637531 -90.66963 27.93688 16.96906 0 0 -22.87895 6.386237 16.8521 6.846338
0.5211341 94.07411 40.14676 -0.2586275 -4.282811 2.519741 4.26587 -26.2076 -0.7212102 -0 10.65373 -0 -5.091251 0.7930378 -5.493369 -3.902282 16.09908 -7.76205 -0 31.19048 -0 -5.59797 -16.34844 10.51414 -1.710502 -1.726138 3.004627 3.226888 9.07528 -8.895721 0.7942534 21.42152 7.22414 4.19844 -25.36428 7.952438 5.184666 -17.01009 11.36341 89.69024 34.6119 -24.54047 -0 0 9.771644 -9.224951 9.148193 4.897229 6.431101 -22.80252 -2.696005 -90.76288 27.57859 17.4984 0 0 -22.45245 5.906025 16.3649 7.412015
0.3362073 94.29303 46.77022 -0.1830987 -5.386773 2.407705 5.134772 -21.81991 0.5271161 -0 12.27134 -0 -4.792144 -0.03708259 -5.933173 -3.640482 12.87232 -7.083856 -0 42.60656 -0 -6.502636 -13.38759 10.78771 -1.685629 -1.667002 3.445228 2.986951 9.279068 -8.579491 0.8102479 21.328 7.141519 4.099642 -24.94257 7.825229 5.109987 -17.5393 11.45563 88.73465 34.33563 -23.09302 -0 0 10.97955 -10.35388 9.702631 5.602968 6.179056 -22.39655 -2.735326 -91.15847 27.12385 18.60286 0 0 -21.51692 5.255987 15.78397 8.181206
0.1129731 95.17336 53.11227 -0.1052461 -6.369201 2.018546 5.913 -16.01895 2.115927 -0 14.65171 -0 -4.73516 -2.039362 -6.087458 -3.309174 8.214815 -7.004366 -0 53.10178 -0 -6.835326 -10.24964 11.93172 -1.656825 -1.601455 3.981168 2.698146 9.501939 -8.176507 0.8325914 21.22876 7.035461 3.989038 -24.47484 7.67797 5.030244 -18.21067 11.56352 87.55729 34.01372 -21.29185 -0 0 12.4943 -11.6349 10.28216 6.450751 5.871964 -21.87141 -2.753473 -91.74804 26.62206 20.06567 0 0 -20.24717 4.485639 15.13647 9.099192
-0.1041391 96.47623 59.093 -0.05377083 -7.074197 1.387675 6.276841 -9.595782 3.361845 -0 16.6273 -0 -4.828443 -4.516618 -5.843048 -2.865421 2.653505 -7.082723 -0 59.43792 -0 -6.752034 -7.579019 13.43095 -1.630943 -1.527921 4.550978 2.389018 9.716935 -7.73446 0.8604089 21.13234 6.921082 3.874035 -23.98687 7.529465 4.956301 -18.92505 11.67215 86.30331 33.66592 -19.35484 -0 0 14.12683 -12.96719 10.85175 7.360178 5.542938 -21.28386 -2.751653 -92.41407 26.12324 21.65443 0 0 -18.83912 3.6528 14.45363 10.10034
